<?xml version="1.0" encoding="UTF-8" standalone="no"?>
<!-- Created with Inkscape (http://www.inkscape.org/) -->

<svg
   xmlns:dc="http://purl.org/dc/elements/1.1/"
   xmlns:cc="http://creativecommons.org/ns#"
   xmlns:rdf="http://www.w3.org/1999/02/22-rdf-syntax-ns#"
   xmlns:svg="http://www.w3.org/2000/svg"
   xmlns="http://www.w3.org/2000/svg"
   xmlns:sodipodi="http://sodipodi.sourceforge.net/DTD/sodipodi-0.dtd"
   xmlns:inkscape="http://www.inkscape.org/namespaces/inkscape"
   width="1052.3622"
   height="744.09448"
   id="svg3827"
   version="1.1"
   inkscape:version="0.48.4 r9939"
   sodipodi:docname="logo.svg">
  <defs
     id="defs3829">
    <linearGradient
       x1="0"
       y1="0"
       x2="1"
       y2="0"
       gradientUnits="userSpaceOnUse"
       gradientTransform="matrix(-25.135513,23.296356,23.296356,25.135513,88.316895,518.90771)"
       spreadMethod="pad"
       id="linearGradient188">
      <stop
         style="stop-opacity:1;stop-color:#faaf40"
         offset="0"
         id="stop190" />
      <stop
         style="stop-opacity:1;stop-color:#ee4036"
         offset="1"
         id="stop192" />
    </linearGradient>
    <linearGradient
       x1="0"
       y1="0"
       x2="1"
       y2="0"
       gradientUnits="userSpaceOnUse"
       gradientTransform="matrix(-25.135498,23.296356,23.296356,25.135498,91.000977,521.80371)"
       spreadMethod="pad"
       id="linearGradient170">
      <stop
         style="stop-opacity:1;stop-color:#faaf40"
         offset="0"
         id="stop172" />
      <stop
         style="stop-opacity:1;stop-color:#ee4036"
         offset="1"
         id="stop174" />
    </linearGradient>
    <linearGradient
       x1="0"
       y1="0"
       x2="1"
       y2="0"
       gradientUnits="userSpaceOnUse"
       gradientTransform="matrix(38.009857,28.200836,28.200836,-38.009857,22.937012,520.33594)"
       spreadMethod="pad"
       id="linearGradient152">
      <stop
         style="stop-opacity:1;stop-color:#8bc53f"
         offset="0"
         id="stop154" />
      <stop
         style="stop-opacity:1;stop-color:#006838"
         offset="1"
         id="stop156" />
    </linearGradient>
    <linearGradient
       x1="0"
       y1="0"
       x2="1"
       y2="0"
       gradientUnits="userSpaceOnUse"
       gradientTransform="matrix(38.010361,28.201218,28.201218,-38.010361,23.038574,520.19873)"
       spreadMethod="pad"
       id="linearGradient134">
      <stop
         style="stop-opacity:1;stop-color:#8bc53f"
         offset="0"
         id="stop136" />
      <stop
         style="stop-opacity:1;stop-color:#006838"
         offset="1"
         id="stop138" />
    </linearGradient>
    <linearGradient
       x1="0"
       y1="0"
       x2="1"
       y2="0"
       gradientUnits="userSpaceOnUse"
       gradientTransform="matrix(-40.463379,-31.267105,-31.267105,40.463379,88.325684,579.86475)"
       spreadMethod="pad"
       id="linearGradient116">
      <stop
         style="stop-opacity:1;stop-color:#26a9e0"
         offset="0"
         id="stop118" />
      <stop
         style="stop-opacity:1;stop-color:#262261"
         offset="1"
         id="stop120" />
    </linearGradient>
    <clipPath
       clipPathUnits="userSpaceOnUse"
       id="clipPath92">
      <path
         inkscape:connector-curvature="0"
         d="m 76.039,592.867 c -6.407,-3.883 -8.549,-11.858 -5.648,-19.086 l 0,0 c -7.52,5.066 -17.57,5.516 -25.224,0.391 l 0,0 c -0.611,-0.41 -1.191,-0.844 -1.741,-1.301 l 0,0 c 9.578,4.501 21.668,1.458 28.265,-7.578 l 0,0 c 6.81,-9.33 5.344,-21.732 -3.037,-28.699 l 0,0 c 0.957,0.449 1.89,0.971 2.788,1.573 l 0,0 c 8.679,5.813 11.39,16.856 7.035,26.19 l 0,0 c 5.428,-3.241 12.121,-3.643 17.353,-0.471 l 0,0 c 0.682,0.413 1.316,0.874 1.9,1.374 l 0,0 c -7.366,-3.428 -16.942,-0.5 -22.07,7.009 l 0,0 c -4.969,7.276 -4.049,16.347 1.8,21.356 l 0,0 c -0.485,-0.226 -0.958,-0.479 -1.421,-0.758"
         id="path94" />
    </clipPath>
    <linearGradient
       x1="0"
       y1="0"
       x2="1"
       y2="0"
       gradientUnits="userSpaceOnUse"
       gradientTransform="matrix(-40.462601,-31.26651,-31.26651,40.462601,88.566895,579.55225)"
       spreadMethod="pad"
       id="linearGradient98">
      <stop
         style="stop-opacity:1;stop-color:#26a9e0"
         offset="0"
         id="stop100" />
      <stop
         style="stop-opacity:1;stop-color:#262261"
         offset="1"
         id="stop102" />
    </linearGradient>
    <clipPath
       clipPathUnits="userSpaceOnUse"
       id="clipPath74">
      <path
         inkscape:connector-curvature="0"
         d="m 24.873,577.357 c 0,-3.384 2.744,-6.127 6.128,-6.127 l 0,0 c 3.384,0 6.129,2.743 6.129,6.127 l 0,0 c 0,3.386 -2.745,6.128 -6.129,6.128 l 0,0 c -3.384,0 -6.128,-2.742 -6.128,-6.128"
         id="path76" />
    </clipPath>
    <linearGradient
       x1="0"
       y1="0"
       x2="1"
       y2="0"
       gradientUnits="userSpaceOnUse"
       gradientTransform="matrix(19.618637,-25.74942,-25.74942,-19.618637,27.608887,581.81006)"
       spreadMethod="pad"
       id="linearGradient80">
      <stop
         style="stop-opacity:1;stop-color:#ec1c24"
         offset="0"
         id="stop82" />
      <stop
         style="stop-opacity:1;stop-color:#6b0e1e"
         offset="1"
         id="stop84" />
    </linearGradient>
    <clipPath
       clipPathUnits="userSpaceOnUse"
       id="clipPath56">
      <path
         inkscape:connector-curvature="0"
         d="m 34.956,569.425 c -7.463,-4.686 -16.489,-3.416 -21.271,2.619 l 0,0 c 0.206,-0.491 0.442,-0.973 0.702,-1.448 l 0,0 c 3.633,-6.549 11.519,-8.998 18.855,-6.379 l 0,0 c -5.352,-7.32 -6.188,-17.344 -1.361,-25.19 l 0,0 c 0.385,-0.625 0.797,-1.221 1.234,-1.788 l 0,0 c -4.13,9.742 -0.625,21.708 8.66,27.95 l 0,0 c 9.586,6.446 21.922,4.501 28.562,-4.14 l 0,0 c -0.413,0.971 -0.898,1.924 -1.467,2.848 l 0,0 c -5.472,8.895 -16.403,12.029 -25.898,8.039 l 0,0 c 3.447,5.299 4.107,11.97 1.14,17.322 l 0,0 c -0.389,0.697 -0.826,1.345 -1.303,1.949 l 0,0 c 3.142,-7.491 -0.152,-16.947 -7.853,-21.782"
         id="path58" />
    </clipPath>
    <linearGradient
       x1="0"
       y1="0"
       x2="1"
       y2="0"
       gradientUnits="userSpaceOnUse"
       gradientTransform="matrix(19.6185,-25.749222,-25.749222,-19.618484,27.383789,581.63965)"
       spreadMethod="pad"
       id="linearGradient62">
      <stop
         style="stop-opacity:1;stop-color:#ec1c24"
         offset="0"
         id="stop64" />
      <stop
         style="stop-opacity:1;stop-color:#6b0e1e"
         offset="1"
         id="stop66" />
    </linearGradient>
    <clipPath
       clipPathUnits="userSpaceOnUse"
       id="clipPath20">
      <path
         inkscape:connector-curvature="0"
         d="M 0,612 792,612 792,0 0,0 0,612 z"
         id="path22" />
    </clipPath>
  </defs>
  <sodipodi:namedview
     id="base"
     pagecolor="#ffffff"
     bordercolor="#666666"
     borderopacity="1.0"
     inkscape:pageopacity="0.0"
     inkscape:pageshadow="2"
     inkscape:zoom="0.35"
     inkscape:cx="386.42858"
     inkscape:cy="520"
     inkscape:document-units="px"
     inkscape:current-layer="layer1"
     showgrid="false"
     inkscape:window-width="1920"
     inkscape:window-height="1008"
     inkscape:window-x="0"
     inkscape:window-y="0"
     inkscape:window-maximized="1" />
  <metadata
     id="metadata3832">
    <rdf:RDF>
      <cc:Work
         rdf:about="">
        <dc:format>image/svg+xml</dc:format>
        <dc:type
           rdf:resource="http://purl.org/dc/dcmitype/StillImage" />
        <dc:title />
      </cc:Work>
    </rdf:RDF>
  </metadata>
  <g
     inkscape:label="Layer 1"
     inkscape:groupmode="layer"
     id="layer1"
     transform="translate(0,-308.2677)">
    <g
       transform="matrix(8.0552456,0,0,-7.9565844,102.2825,5067.7878)"
       id="g52">
      <g
         id="g54"
         clip-path="url(#clipPath56)">
        <g
           id="g60">
          <path
             inkscape:connector-curvature="0"
             d="m 34.956,569.425 c -7.463,-4.686 -16.489,-3.416 -21.271,2.619 l 0,0 c 0.206,-0.491 0.442,-0.973 0.702,-1.448 l 0,0 c 3.633,-6.549 11.519,-8.998 18.855,-6.379 l 0,0 c -5.352,-7.32 -6.188,-17.344 -1.361,-25.19 l 0,0 c 0.385,-0.625 0.797,-1.221 1.234,-1.788 l 0,0 c -4.13,9.742 -0.625,21.708 8.66,27.95 l 0,0 c 9.586,6.446 21.922,4.501 28.562,-4.14 l 0,0 c -0.413,0.971 -0.898,1.924 -1.467,2.848 l 0,0 c -5.472,8.895 -16.403,12.029 -25.898,8.039 l 0,0 c 3.447,5.299 4.107,11.97 1.14,17.322 l 0,0 c -0.389,0.697 -0.826,1.345 -1.303,1.949 l 0,0 c 3.142,-7.491 -0.152,-16.947 -7.853,-21.782"
             style="fill:url(#linearGradient62);stroke:none"
             id="path68" />
        </g>
      </g>
    </g>
    <g
       transform="matrix(8.0552456,0,0,-7.9565844,102.2825,5067.7878)"
       id="g70">
      <g
         id="g72"
         clip-path="url(#clipPath74)">
        <g
           id="g78">
          <path
             inkscape:connector-curvature="0"
             d="m 24.873,577.357 c 0,-3.384 2.744,-6.127 6.128,-6.127 l 0,0 c 3.384,0 6.129,2.743 6.129,6.127 l 0,0 c 0,3.386 -2.745,6.128 -6.129,6.128 l 0,0 c -3.384,0 -6.128,-2.742 -6.128,-6.128"
             style="fill:url(#linearGradient80);stroke:none"
             id="path86" />
        </g>
      </g>
    </g>
    <g
       transform="matrix(8.0552456,0,0,-7.9565844,102.2825,5067.7878)"
       id="g88">
      <g
         id="g90"
         clip-path="url(#clipPath92)">
        <g
           id="g96">
          <path
             inkscape:connector-curvature="0"
             d="m 76.039,592.867 c -6.407,-3.883 -8.549,-11.858 -5.648,-19.086 l 0,0 c -7.52,5.066 -17.57,5.516 -25.224,0.391 l 0,0 c -0.611,-0.41 -1.191,-0.844 -1.741,-1.301 l 0,0 c 9.578,4.501 21.668,1.458 28.265,-7.578 l 0,0 c 6.81,-9.33 5.344,-21.732 -3.037,-28.699 l 0,0 c 0.957,0.449 1.89,0.971 2.788,1.573 l 0,0 c 8.679,5.813 11.39,16.856 7.035,26.19 l 0,0 c 5.428,-3.241 12.121,-3.643 17.353,-0.471 l 0,0 c 0.682,0.413 1.316,0.874 1.9,1.374 l 0,0 c -7.366,-3.428 -16.942,-0.5 -22.07,7.009 l 0,0 c -4.969,7.276 -4.049,16.347 1.8,21.356 l 0,0 c -0.485,-0.226 -0.958,-0.479 -1.421,-0.758"
             style="fill:url(#linearGradient98);stroke:none"
             id="path104" />
        </g>
      </g>
    </g>
    <g
       transform="matrix(8.0552456,0,0,-7.9565844,102.2825,5067.7878)"
       id="g106">
      <g
         id="g108">
        <g
           id="g114">
          <path
             inkscape:connector-curvature="0"
             d="m 77.71,576.397 c 0,-3.384 2.743,-6.128 6.128,-6.128 l 0,0 c 3.385,0 6.128,2.744 6.128,6.128 l 0,0 c 0,3.385 -2.743,6.127 -6.128,6.127 l 0,0 c -3.385,0 -6.128,-2.742 -6.128,-6.127"
             style="fill:url(#linearGradient116);stroke:none"
             id="path122" />
        </g>
      </g>
    </g>
    <g
       transform="matrix(8.0552456,0,0,-7.9565844,102.2825,5067.7878)"
       id="g124">
      <g
         id="g126">
        <g
           id="g132">
          <path
             inkscape:connector-curvature="0"
             d="M 42.433,562.315 C 33.57,556.79 30.499,545.843 34.546,536.371 l 0,0 c -5.318,3.417 -11.993,4.038 -17.327,1.04 l 0,0 c -0.696,-0.395 -1.343,-0.833 -1.945,-1.315 l 0,0 c 7.474,3.186 16.95,-0.053 21.83,-7.725 l 0,0 c 4.728,-7.436 3.513,-16.469 -2.497,-21.286 l 0,0 c 0.49,0.209 0.973,0.447 1.445,0.712 l 0,0 c 6.529,3.671 8.931,11.572 6.269,18.891 l 0,0 c 7.348,-5.309 17.38,-6.088 25.199,-1.215 l 0,0 c 0.622,0.389 1.218,0.805 1.781,1.243 l 0,0 c -9.719,-4.185 -21.705,-0.752 -28.003,8.5 l 0,0 c -6.5,9.545 -4.629,21.893 3.976,28.584 l 0,0 c -0.972,-0.418 -1.923,-0.91 -2.841,-1.485"
             style="fill:url(#linearGradient134);stroke:none"
             id="path140" />
        </g>
      </g>
    </g>
    <g
       transform="matrix(8.0552456,0,0,-7.9565844,102.2825,5067.7878)"
       id="g142">
      <g
         id="g144">
        <g
           id="g150">
          <path
             inkscape:connector-curvature="0"
             d="m 23.499,525.299 c 0,-3.385 2.743,-6.128 6.128,-6.128 l 0,0 c 3.384,0 6.128,2.743 6.128,6.128 l 0,0 c 0,3.385 -2.744,6.128 -6.128,6.128 l 0,0 c -3.385,0 -6.128,-2.743 -6.128,-6.128"
             style="fill:url(#linearGradient152);stroke:none"
             id="path158" />
        </g>
      </g>
    </g>
    <g
       transform="matrix(8.0552456,0,0,-7.9565844,102.2825,5067.7878)"
       id="g160">
      <g
         id="g162">
        <g
           id="g168">
          <path
             inkscape:connector-curvature="0"
             d="m 71.773,535.073 c -9.468,-6.618 -21.836,-4.898 -28.633,3.625 l 0,0 c 0.43,-0.965 0.935,-1.913 1.519,-2.825 l 0,0 c 5.632,-8.793 16.618,-11.729 26.04,-7.566 l 0,0 c -3.352,-5.359 -3.89,-12.043 -0.827,-17.337 l 0,0 c 0.401,-0.693 0.848,-1.335 1.337,-1.931 l 0,0 c -3.275,7.433 -0.155,16.949 7.457,21.924 l 0,0 c 7.378,4.816 16.426,3.713 21.317,-2.237 l 0,0 c -0.217,0.489 -0.459,0.968 -0.731,1.435 l 0,0 c -3.749,6.484 -11.679,8.79 -18.966,6.038 l 0,0 c 5.219,7.414 5.875,17.453 0.907,25.21 l 0,0 c -0.397,0.618 -0.82,1.209 -1.268,1.769 l 0,0 c 4.305,-9.669 1.019,-21.694 -8.152,-28.105"
             style="fill:url(#linearGradient170);stroke:none"
             id="path176" />
        </g>
      </g>
    </g>
    <g
       transform="matrix(8.0552456,0,0,-7.9565844,102.2825,5067.7878)"
       id="g178">
      <g
         id="g180">
        <g
           id="g186">
          <path
             inkscape:connector-curvature="0"
             d="m 76.847,523.858 c 0,-3.384 2.745,-6.129 6.129,-6.129 l 0,0 c 3.384,0 6.128,2.745 6.128,6.129 l 0,0 c 0,3.385 -2.744,6.128 -6.128,6.128 l 0,0 c -3.384,0 -6.129,-2.743 -6.129,-6.128"
             style="fill:url(#linearGradient188);stroke:none"
             id="path194" />
        </g>
      </g>
    </g>
  </g>
</svg>
